<svg width="91.885" height="92" xmlns="http://www.w3.org/2000/svg">

 <g>
  <title>Layer 1</title>
  <g stroke="null" id="Group_14">
   <g stroke="null" id="Group_1">
    <path stroke="null" fill="#066069" d="m82.48255,61.01861l-33.80363,13.99552l9.13572,3.78355l33.80218,-13.99988l-7.84307,-18.92068l7.84307,-18.91923l-16.17996,-6.70292l3.78355,9.13572l3.26068,1.35075l-6.2701,15.13567l6.27155,15.14148z" id="Path_29"/>
    <path stroke="null" fill="#066069" d="m61.07822,9.34151l13.99988,33.80218l3.78355,-9.13572l-13.99843,-33.80072l-18.92068,7.84307l-18.91923,-7.84307l-6.70292,16.17996l9.13572,-3.78355l1.35075,-3.26068l15.13567,6.2701l15.13567,-6.27155z" id="Path_30"/>
    <path stroke="null" fill="#066069" d="m9.39966,30.75019l33.80218,-13.99988l-9.13572,-3.78355l-33.79491,13.99407l7.84307,18.92068l-7.84307,18.91923l16.17996,6.70292l-3.78355,-9.13572l-3.26068,-1.35075l6.2701,-15.13567l-6.27736,-15.13131z" id="Path_31"/>
    <path stroke="null" fill="#066069" d="m30.80542,82.42295l-13.99988,-33.80218l-3.78355,9.13572l13.99988,33.80218l18.92068,-7.84307l18.91923,7.84307l6.70292,-16.17996l-9.13572,3.78355l-1.35075,3.26068l-15.13567,-6.2701l-15.13712,6.2701z" id="Path_32"/>
    <path stroke="null" fill="#066069" d="m61.05788,26.71535q0.68264,-0.0276 1.37108,-0.01888a34.94087,34.94087 0 0 1 -4.3834,33.08323a30.59814,30.59814 0 0 1 -7.37684,-0.78866a32.8247,32.8247 0 0 0 10.38916,-32.27568z" id="Path_33"/>
    <path stroke="null" fill="#066069" d="m51.29762,66.76151a35.13404,35.13404 0 0 1 -21.64106,7.40734l-2.99199,-7.22579a32.6141,32.6141 0 0 0 14.20757,-2.07696a37.09336,37.09336 0 0 0 10.42547,1.89541z" id="Path_34"/>
    <path stroke="null" fill="#066069" d="m65.10289,60.99392q0.0276,0.68409 0.01888,1.37108a34.94233,34.94233 0 0 1 -33.08323,-4.3834a30.62428,30.62428 0 0 1 0.78866,-7.37684a32.8247,32.8247 0 0 0 32.27568,10.38916z" id="Path_35"/>
    <path stroke="null" fill="#066069" d="m25.05964,51.23803a35.13114,35.13114 0 0 1 -7.40734,-21.64106l7.22579,-2.99199a32.6141,32.6141 0 0 0 2.07696,14.20757a37.09772,37.09772 0 0 0 -1.89541,10.42547z" id="Path_36"/>
    <path stroke="null" fill="#066069" d="m26.77497,30.76616q-0.0276,-0.68409 -0.01888,-1.37108a34.94087,34.94087 0 0 1 33.08323,4.3834a30.61702,30.61702 0 0 1 -0.78866,7.37684a32.8247,32.8247 0 0 0 -32.27568,-10.38916z" id="Path_37"/>
    <path stroke="null" fill="#066069" d="m66.82107,40.52641a35.12969,35.12969 0 0 1 7.40734,21.64106l-7.22579,2.99199a32.61119,32.61119 0 0 0 -2.07696,-14.20757a37.09191,37.09191 0 0 0 1.89541,-10.42547z" id="Path_38"/>
    <path stroke="null" fill="#066069" d="m30.82431,65.04908q-0.68409,0.0276 -1.37108,0.01888a34.94087,34.94087 0 0 1 4.3834,-33.08323a30.60685,30.60685 0 0 1 7.37684,0.78866a32.8247,32.8247 0 0 0 -10.38916,32.27568z" id="Path_39"/>
    <path stroke="null" fill="#066069" d="m40.586,25.0015a35.12823,35.12823 0 0 1 21.64106,-7.40734l2.99199,7.22579a32.61555,32.61555 0 0 0 -14.20757,2.07696a37.089,37.089 0 0 0 -10.42547,-1.89541z" id="Path_40"/>
   </g>
  </g>
 </g>
</svg>